<svg xmlns="http://www.w3.org/2000/svg" viewBox="0 0 45.54 42.65"><defs><style>.cls-1{fill:#0c2340;}.cls-2{fill:#fff;}</style></defs><g id="Capa_2" data-name="Capa 2"><g id="Capa_1-2" data-name="Capa 1"><rect class="cls-1" width="45.54" height="42.65" transform="translate(45.54 42.65) rotate(180)"/><path class="cls-2" d="M22.66,7.44a13.88,13.88,0,1,1-7,25.86l-3.94,2.23-.1,0a.2.2,0,0,1-.19-.26L12.75,31a13.88,13.88,0,0,1,9.91-23.6m0-.5A14.4,14.4,0,0,0,8.28,21.32a14.24,14.24,0,0,0,3.91,9.85l-1.25,4a.69.69,0,0,0,.11.62.7.7,0,0,0,.56.29A.67.67,0,0,0,12,36l3.7-2.09a14.38,14.38,0,1,0,7-26.94Z"/><path class="cls-2" d="M18.62,17A4.57,4.57,0,0,1,20,14.08a4.21,4.21,0,0,1,2.88-1,4.19,4.19,0,0,1,3,1.11,4,4,0,0,1,1.14,3,4.48,4.48,0,0,1-.3,1.72A5.19,5.19,0,0,1,26,20.21q-.49.6-1,1.17A15.34,15.34,0,0,0,23.63,23a3,3,0,0,0-.57,1.72H22a3.11,3.11,0,0,1,.18-1.25,4.31,4.31,0,0,1,.66-1.15c.31-.4.72-.88,1.22-1.44a11.22,11.22,0,0,0,1.33-1.74,3.43,3.43,0,0,0,.44-1.8A3.27,3.27,0,0,0,25,15a2.82,2.82,0,0,0-2.12-.82,3.14,3.14,0,0,0-1.66.41,2.8,2.8,0,0,0-1,1.11,4.49,4.49,0,0,0-.46,1.52Zm3.9,12.53a.94.94,0,0,1-.7-.24,1.29,1.29,0,0,1-.23-.88,1.37,1.37,0,0,1,.23-.9.91.91,0,0,1,.7-.25.87.87,0,0,1,.7.25,1.38,1.38,0,0,1,.22.9,1.3,1.3,0,0,1-.22.88A.9.9,0,0,1,22.52,29.55Z"/></g></g></svg>