<svg xmlns="http://www.w3.org/2000/svg" viewBox="0 0 29.93 26.79"><defs><style>.cls-1{fill:#0c2340;}</style></defs><g id="Capa_2" data-name="Capa 2"><g id="Capa_1-2" data-name="Capa 1"><path class="cls-1" d="M27.89,20.27H2a2,2,0,0,1-2-2V2A2,2,0,0,1,2,0H27.89a2,2,0,0,1,2,2V18.24A2,2,0,0,1,27.89,20.27ZM2,.91A1.13,1.13,0,0,0,.91,2V18.24A1.12,1.12,0,0,0,2,19.36H27.89A1.12,1.12,0,0,0,29,18.24V2A1.12,1.12,0,0,0,27.89.91Z"/><path class="cls-1" d="M23.25,26.79H6.68a.46.46,0,1,1,0-.91h3A1.92,1.92,0,0,0,11.62,24V19.82a.46.46,0,1,1,.91,0V24a2.79,2.79,0,0,1-.75,1.91h6.36A2.83,2.83,0,0,1,17.4,24V19.82a.46.46,0,1,1,.91,0V24a1.92,1.92,0,0,0,1.91,1.91h3a.46.46,0,1,1,0,.91Z"/><path class="cls-1" d="M29.47,17.05H.46a.46.46,0,0,1,0-.92h29a.46.46,0,0,1,0,.92Z"/><path class="cls-1" d="M11.71,13.56a.45.45,0,0,1-.32-.14.46.46,0,0,1,0-.65l5.36-5.36a.46.46,0,0,1,.51-.09,2.15,2.15,0,0,0,3-2.15L19.12,6.34a.48.48,0,0,1-.65,0L17.2,5.07a.48.48,0,0,1,0-.65l1.19-1.19a2.17,2.17,0,0,0-1.76.62,2.13,2.13,0,0,0-.42,2.43.47.47,0,0,1-.09.52l-5.35,5.35a.46.46,0,0,1-.65,0,.45.45,0,0,1,0-.64l5.14-5.14a3.06,3.06,0,0,1,4.2-3.78.46.46,0,0,1,.25.34.44.44,0,0,1-.12.4L18.18,4.74l.62.63L20.2,4a.47.47,0,0,1,.41-.12.44.44,0,0,1,.33.26,3.06,3.06,0,0,1-3.75,4.17L12,13.42A.47.47,0,0,1,11.71,13.56Z"/><path class="cls-1" d="M14.67,14.51a5.71,5.71,0,0,1-.62-11.38.45.45,0,0,1,.5.4.46.46,0,0,1-.4.51,4.79,4.79,0,1,0,5.29,5.25.46.46,0,0,1,.5-.41.47.47,0,0,1,.41.51,5.7,5.7,0,0,1-5.68,5.12Z"/></g></g></svg>