<svg xmlns="http://www.w3.org/2000/svg" viewBox="0 0 31.12 31.92"><defs><style>.cls-1{fill:green;}</style></defs><g id="Capa_2" data-name="Capa 2"><g id="Capa_1-2" data-name="Capa 1"><path class="cls-1" d="M31.1,16.38a15.32,15.32,0,0,1-.81,4.91h-.83a14.56,14.56,0,0,0,.86-4.91,14.76,14.76,0,0,0-9.85-13.9V1.65A15.55,15.55,0,0,1,31.1,16.38m-30.3,0a14.76,14.76,0,0,1,9.85-13.9V1.65A15.55,15.55,0,0,0,0,16.38a15.32,15.32,0,0,0,.81,4.91h.83A14.56,14.56,0,0,1,.8,16.38m25.74,9.83a14.69,14.69,0,0,1-22,0h-1a15.51,15.51,0,0,0,24,0ZM9,17.61a2.87,2.87,0,1,0-2.87,2.86A2.88,2.88,0,0,0,9,17.61m-.82,0a2.05,2.05,0,1,1-2-2,2,2,0,0,1,2.05,2m19.65,0A2.87,2.87,0,1,0,25,20.47a2.87,2.87,0,0,0,2.86-2.86m-.82,0a2,2,0,1,1-2-2,2,2,0,0,1,2,2M18.43,2.87a2.87,2.87,0,1,0-2.87,2.86,2.88,2.88,0,0,0,2.87-2.86m-.82,0a2.05,2.05,0,1,1-2-2.05,2,2,0,0,1,2,2.05m-2,3.68a6.15,6.15,0,0,0-6.14,6.14h.82a5.32,5.32,0,1,1,10.64,0h.82a6.15,6.15,0,0,0-6.14-6.14M6.14,21.29A6.15,6.15,0,0,0,0,27.43H.82a5.33,5.33,0,0,1,10.65,0h.81a6.15,6.15,0,0,0-6.14-6.14m6.14,6.14h-.81v.41h.81Zm-11.46,0H0v.41H.82ZM25,21.29a6.15,6.15,0,0,0-6.14,6.14h.81a5.33,5.33,0,0,1,10.65,0h.82A6.15,6.15,0,0,0,25,21.29m6.14,6.14H30.3v.41h.82Zm-11.47,0h-.81v.41h.81Z"/></g></g></svg>