<svg xmlns="http://www.w3.org/2000/svg" viewBox="0 0 45.54 42.65"><defs><style>.cls-1{fill:#0c2340;}.cls-2{fill:#fff;}</style></defs><g id="Capa_2" data-name="Capa 2"><g id="Capa_1-2" data-name="Capa 1"><rect class="cls-1" width="45.54" height="42.65" transform="translate(45.54 42.65) rotate(180)"/><path class="cls-2" d="M33.05,8.44H13a3.34,3.34,0,0,0-3.34,3.33v20A3.34,3.34,0,0,0,13,35.13h20a3.34,3.34,0,0,0,3.34-3.33v-20a3.34,3.34,0,0,0-3.34-3.33m2.6,23.36a2.6,2.6,0,0,1-2.6,2.59H13a2.6,2.6,0,0,1-2.6-2.59v-20A2.6,2.6,0,0,1,13,9.18h20a2.6,2.6,0,0,1,2.6,2.59ZM24.89,11.4h-3.7a1.12,1.12,0,0,0-1.12,1.12v3.7a1.12,1.12,0,0,0,1.12,1.12h3.7A1.12,1.12,0,0,0,26,16.22v-3.7a1.12,1.12,0,0,0-1.12-1.12m.37,4.82a.36.36,0,0,1-.37.37h-3.7a.36.36,0,0,1-.37-.37v-3.7a.37.37,0,0,1,.37-.38h3.7a.37.37,0,0,1,.37.38ZM17.48,11.4H13.77a1.12,1.12,0,0,0-1.11,1.12v3.7a1.12,1.12,0,0,0,1.11,1.12h3.71a1.12,1.12,0,0,0,1.11-1.12v-3.7a1.12,1.12,0,0,0-1.11-1.12m.37,4.82a.37.37,0,0,1-.37.37H13.77a.37.37,0,0,1-.37-.37v-3.7a.38.38,0,0,1,.37-.38h3.71a.38.38,0,0,1,.37.38ZM32.31,11.4H28.6a1.12,1.12,0,0,0-1.11,1.12v3.7a1.12,1.12,0,0,0,1.11,1.12h3.71a1.12,1.12,0,0,0,1.11-1.12v-3.7a1.12,1.12,0,0,0-1.11-1.12m.37,4.82a.37.37,0,0,1-.37.37H28.6a.37.37,0,0,1-.37-.37v-3.7a.38.38,0,0,1,.37-.38h3.71a.38.38,0,0,1,.37.38Zm-7.79,2.6h-3.7a1.12,1.12,0,0,0-1.12,1.11v3.71a1.12,1.12,0,0,0,1.12,1.11h3.7A1.12,1.12,0,0,0,26,23.64V19.93a1.12,1.12,0,0,0-1.12-1.11m.37,4.82a.37.37,0,0,1-.37.37h-3.7a.37.37,0,0,1-.37-.37V19.93a.37.37,0,0,1,.37-.37h3.7a.37.37,0,0,1,.37.37Zm-7.78-4.82H13.77a1.11,1.11,0,0,0-1.11,1.11v3.71a1.11,1.11,0,0,0,1.11,1.11h3.71a1.11,1.11,0,0,0,1.11-1.11V19.93a1.11,1.11,0,0,0-1.11-1.11m.37,4.82a.38.38,0,0,1-.37.37H13.77a.38.38,0,0,1-.37-.37V19.93a.38.38,0,0,1,.37-.37h3.71a.38.38,0,0,1,.37.37Zm14.46-4.82H28.6a1.11,1.11,0,0,0-1.11,1.11v3.71a1.11,1.11,0,0,0,1.11,1.11h3.71a1.11,1.11,0,0,0,1.11-1.11V19.93a1.11,1.11,0,0,0-1.11-1.11m.37,4.82a.38.38,0,0,1-.37.37H28.6a.38.38,0,0,1-.37-.37V19.93a.38.38,0,0,1,.37-.37h3.71a.38.38,0,0,1,.37.37Zm-15.2,2.59H13.77a1.12,1.12,0,0,0-1.11,1.12v3.7a1.12,1.12,0,0,0,1.11,1.12h3.71a1.12,1.12,0,0,0,1.11-1.12v-3.7a1.12,1.12,0,0,0-1.11-1.12m.37,4.82a.37.37,0,0,1-.37.37H13.77a.37.37,0,0,1-.37-.37v-3.7a.37.37,0,0,1,.37-.37h3.71a.37.37,0,0,1,.37.37Z"/></g></g></svg>