<svg xmlns="http://www.w3.org/2000/svg" viewBox="0 0 45.54 42.65"><defs><style>.cls-1{fill:#0c2340;}.cls-2{fill:#fff;}</style></defs><g id="Capa_2" data-name="Capa 2"><g id="Capa_1-2" data-name="Capa 1"><rect class="cls-1" width="45.54" height="42.65" transform="translate(45.54 42.65) rotate(180)"/><path class="cls-2" d="M30.82,25.93a4.46,4.46,0,0,0-4.44,4,28.83,28.83,0,0,1-10.89-5.75,4.43,4.43,0,0,0,0-6.15,28.54,28.54,0,0,1,10.89-5.75,4.51,4.51,0,1,0,0-.72,28.76,28.76,0,0,0-11.39,6,4.42,4.42,0,0,0-2.72-.94,4.47,4.47,0,1,0,2.72,8,28.76,28.76,0,0,0,11.39,6,4.46,4.46,0,1,0,4.45-4.73m0-17.88A3.78,3.78,0,1,1,27,11.83a3.78,3.78,0,0,1,3.78-3.78M8.48,21.11a3.78,3.78,0,1,1,3.78,3.78,3.78,3.78,0,0,1-3.78-3.78M30.82,34.18A3.79,3.79,0,1,1,34.6,30.4a3.79,3.79,0,0,1-3.78,3.78"/></g></g></svg>